<svg xmlns="http://www.w3.org/2000/svg" width="16" height="16" viewBox="0 0 16 16" fill="none">
<path fill-rule="evenodd" clip-rule="evenodd" d="M12.5753 4.30861C12.8194 4.06453 12.8194 3.6688 12.5753 3.42473C12.3312 3.18065 11.9355 3.18065 11.6914 3.42473L8.00003 7.11612L4.30864 3.42473C4.06456 3.18065 3.66884 3.18065 3.42476 3.42473C3.18068 3.6688 3.18068 4.06453 3.42476 4.30861L7.11615 8L3.42476 11.6914C3.18068 11.9355 3.18068 12.3312 3.42476 12.5753C3.66884 12.8194 4.06456 12.8194 4.30864 12.5753L8.00003 8.88389L11.6914 12.5753C11.9355 12.8194 12.3312 12.8194 12.5753 12.5753C12.8194 12.3312 12.8194 11.9355 12.5753 11.6914L8.88392 8L12.5753 4.30861Z" fill="white"/>
</svg>